<svg xmlns="http://www.w3.org/2000/svg" x="0px" y="0px" viewBox="0 0 322.113 322.113">
	<g transform="translate(0 -562.36)">
		<path
			d="M322.043,723.066v-146.5c0-7.9-6.3-14.2-13.7-14.2h-147.1c-18.9-0.5-18.9,28.4,0,27.8h132.9v132.9
				c0,7.9,6.3,14.7,14.2,14.2C316.243,737.266,322.543,730.966,322.043,723.066z"
		/>
		<path
			d="M160.743,856.667h-132.9v-132.9c0.6-8-6.3-14.3-14.1-14.3v0c-7.4,0-13.7,6.3-13.7,14.2v147.1c0,7.4,6.3,13.7,14.2,13.7
				h146.5C179.643,884.966,179.643,856.667,160.743,856.667z"
		/>
		<path
			d="M209.643,660.566L209.643,660.566c-3.7,0-6.8,1.6-9.5,4.2l-97.7,97.7c-13.7,13.1,6.3,33.6,19.4,19.4l98.2-97.7
				C229.043,675.266,222.743,660.066,209.643,660.566z"
		/>
	</g>
</svg>
