<svg id="Layer_1" data-name="Layer 1" xmlns="http://www.w3.org/2000/svg" viewBox="0 0 389.94 512"><defs><style>.cls-1{fill:#fef5e4;}.cls-2{fill:#fee4c2;}.cls-3{fill:#ffd4a1;}.cls-4{fill:#d63be7;}</style></defs><path class="cls-1" d="M370.31,512H28.06A23.85,23.85,0,0,1,4.22,488.16V23.84A23.85,23.85,0,0,1,28.06,0H269L394.16,152V488.16A23.85,23.85,0,0,1,370.31,512Z" transform="translate(-4.22 0)"/><path class="cls-2" d="M269,0l91.17,152V488.16A23.84,23.84,0,0,1,336.32,512h34a23.85,23.85,0,0,0,23.85-23.84V152Z" transform="translate(-4.22 0)"/><path class="cls-3" d="M269,0V126.5a25.29,25.29,0,0,0,25.29,25.55h99.61Z" transform="translate(-4.22 0)"/><path class="cls-4" d="M267.83,257.51,145.46,186.86a14.91,14.91,0,0,0-22.37,12.91v141.3A14.92,14.92,0,0,0,145.46,354l122.37-70.65A14.91,14.91,0,0,0,267.83,257.51Z" transform="translate(-4.22 0)"/><path class="cls-2" d="M338.26,466.16H60.11a7.73,7.73,0,0,1,0-15.46H338.26a7.73,7.73,0,0,1,0,15.46Z" transform="translate(-4.22 0)"/></svg>