<svg
  xmlns="http://www.w3.org/2000/svg"
  xmlns:xlink="http://www.w3.org/1999/xlink"
  viewBox="0 0 85.04 49.68"
>
  <defs>
    <style>
      .cls-1 {
        isolation: isolate;
      }
      .cls-2 {
        fill: #413c5e;
      }
      .cls-3 {
        fill: url(#linear-gradient);
      }
      .cls-4 {
        fill: url(#linear-gradient-2);
      }
      .cls-5 {
        fill: url(#linear-gradient-3);
      }
      .cls-6 {
        fill: url(#linear-gradient-4);
      }
      .cls-7 {
        fill: url(#linear-gradient-5);
      }
      .cls-8 {
        fill: url(#linear-gradient-6);
      }
      .cls-9 {
        opacity: 0.3;
      }
      .cls-10,
      .cls-11,
      .cls-12 {
        mix-blend-mode: multiply;
      }
      .cls-10 {
        fill: url(#linear-gradient-7);
      }
      .cls-11 {
        fill: url(#linear-gradient-8);
      }
      .cls-12 {
        fill: url(#linear-gradient-9);
      }
    </style>
    <linearGradient
      id="linear-gradient"
      x1="10.53"
      y1="-0.08"
      x2="6.16"
      y2="14.21"
      gradientUnits="userSpaceOnUse"
    >
      <stop offset="0.01" stop-color="#413c5e" />

      <stop offset="0.99" stop-color="#413c5e" />
    </linearGradient>
    <linearGradient
      id="linear-gradient-2"
      x1="20.37"
      y1="-3.76"
      x2="9.27"
      y2="32.57"
      xlink:href="#linear-gradient"
    />
    <linearGradient
      id="linear-gradient-3"
      x1="23.53"
      y1="5.7"
      x2="10.53"
      y2="48.23"
      xlink:href="#linear-gradient"
    />
    <linearGradient
      id="linear-gradient-4"
      x1="62.27"
      y1="48.29"
      x2="57.12"
      y2="49.48"
      xlink:href="#linear-gradient"
    />
    <linearGradient
      id="linear-gradient-5"
      x1="62.37"
      y1="41.83"
      x2="57.12"
      y2="43.04"
      xlink:href="#linear-gradient"
    />
    <linearGradient
      id="linear-gradient-6"
      x1="62.27"
      y1="35.42"
      x2="57.12"
      y2="36.61"
      xlink:href="#linear-gradient"
    />
    <linearGradient
      id="linear-gradient-7"
      x1="21.99"
      y1="-26.81"
      x2="9.07"
      y2="15.44"
      gradientUnits="userSpaceOnUse"
    >
      <stop offset="0.01" stop-color="#413c5e" />

      <stop offset="0.99" stop-color="#413c5e" />   
    </linearGradient>
    <linearGradient
      id="linear-gradient-8"
      x1="30.22"
      y1="-24.29"
      x2="17.3"
      y2="17.96"
      xlink:href="#linear-gradient-7"
    />
    <linearGradient
      id="linear-gradient-9"
      x1="34.92"
      y1="-22.86"
      x2="22"
      y2="19.4"
      xlink:href="#linear-gradient-7"
    />
  </defs>
  <g class="cls-1">
    <g id="Layer_2" data-name="Layer 2">
      <g id="Layer_1-2" data-name="Layer 1">
        <path
          class="cls-2"
          d="M17.29,48.71a3.47,3.47,0,0,1-1-2.56V38.77a3.47,3.47,0,0,1,1-2.56,3.37,3.37,0,0,1,2.51-1,3.33,3.33,0,0,1,3.51,3.53v7.38a3.45,3.45,0,0,1-1,2.55,3.38,3.38,0,0,1-2.54,1A3.37,3.37,0,0,1,17.29,48.71Zm4-.89a2.21,2.21,0,0,0,.58-1.59V38.71a2.22,2.22,0,0,0-.58-1.6,2,2,0,0,0-1.5-.62,1.92,1.92,0,0,0-1.47.62,2.25,2.25,0,0,0-.57,1.6v7.52a2.25,2.25,0,0,0,.57,1.59,1.91,1.91,0,0,0,1.47.61A2,2,0,0,0,21.3,47.82Z"
        />
        <path
          class="cls-2"
          d="M27.89,49.32V35.6a.18.18,0,0,1,.2-.2h1a.18.18,0,0,1,.2.2V49.32a.18.18,0,0,1-.2.2h-1A.18.18,0,0,1,27.89,49.32Z"
        />
        <path
          class="cls-2"
          d="M40.09,35.4h1a.18.18,0,0,1,.2.2V49.32a.18.18,0,0,1-.2.2H39.91a.21.21,0,0,1-.22-.16L35.75,38.93s0,0-.06,0a.07.07,0,0,0,0,.07l0,10.37a.18.18,0,0,1-.2.2h-1a.18.18,0,0,1-.2-.2V35.6a.18.18,0,0,1,.2-.2h1.17a.22.22,0,0,1,.22.16l4,10.45s0,.06.06.05a.07.07,0,0,0,0-.07V35.6A.18.18,0,0,1,40.09,35.4Z"
        />
        <path
          class="cls-2"
          d="M52.59,35.6v.85a.18.18,0,0,1-.2.2H49.73c-.06,0-.08,0-.08.08V49.32a.18.18,0,0,1-.21.2h-1a.18.18,0,0,1-.2-.2V36.73s0-.08-.09-.08h-2.5a.18.18,0,0,1-.2-.2V35.6a.18.18,0,0,1,.2-.2h6.76A.18.18,0,0,1,52.59,35.6Z"
        />
        <path
          class="cls-2"
          d="M68,48.73a3.43,3.43,0,0,1-.94-2.54V38.71A3.4,3.4,0,0,1,68,36.19a3.34,3.34,0,0,1,2.49-.95,3.38,3.38,0,0,1,2.51.94A3.45,3.45,0,0,1,74,38.71v.34a.18.18,0,0,1-.2.2l-1,.07c-.14,0-.2-.07-.2-.21v-.5A2.17,2.17,0,0,0,72,37.08a2.06,2.06,0,0,0-2.89,0,2.13,2.13,0,0,0-.56,1.53v7.7a2.14,2.14,0,0,0,.56,1.54,2.09,2.09,0,0,0,2.89,0,2.18,2.18,0,0,0,.55-1.54v-.5c0-.14.06-.2.2-.2l1,.06a.18.18,0,0,1,.2.2v.32a3.44,3.44,0,0,1-1,2.54,3.35,3.35,0,0,1-2.5,1A3.3,3.3,0,0,1,68,48.73Z"
        />
        <path
          class="cls-2"
          d="M83.81,35.4h1a.18.18,0,0,1,.2.2V49.32a.18.18,0,0,1-.2.2h-1a.18.18,0,0,1-.2-.2V43.17c0-.06,0-.08-.08-.08H79.94c-.06,0-.08,0-.08.08v6.15a.18.18,0,0,1-.21.2h-1a.18.18,0,0,1-.21-.2V35.6a.18.18,0,0,1,.21-.2h1a.18.18,0,0,1,.21.2v6.14s0,.08.08.08h3.59a.07.07,0,0,0,.08-.08V35.6A.18.18,0,0,1,83.81,35.4Z"
        />
        <path
          class="cls-3"
          d="M14.74,1.87H0V12.32A76.61,76.61,0,0,1,19.6,2.71,14.77,14.77,0,0,0,14.74,1.87Z"
        />
        <path
          class="cls-4"
          d="M1.66,27.25,2.52,26l.56-.78.8-1.09c.21-.28.42-.57.64-.85s.52-.68.79-1c.48-.61,1-1.23,1.48-1.84l.5-.61L8.36,18.6l.43-.5c.4-.44.79-.88,1.2-1.32l.21-.22a77.09,77.09,0,0,1,6.21-6l0,0A71.11,71.11,0,0,1,23.73,5a62.71,62.71,0,0,1,8.94-5c-1,.26-2,.52-2.88.78a67.26,67.26,0,0,0-7.83,3h0l-.73.33-.39.18c-.51.25-1,.5-1.57.77l-.48.24L17.36,6,17,6.22c-.57.3-1.15.63-1.73,1l-.48.28c-.54.31-1.08.64-1.62,1l-.26.15c-.61.39-1.23.79-1.85,1.21l-.47.32c-.59.4-1.18.81-1.77,1.24l-.17.12C8,12,7.4,12.44,6.77,12.93l-.48.38c-.63.49-1.25,1-1.87,1.53l-.09.07c-.64.55-1.28,1.12-1.93,1.71l-.47.44c-.65.6-1.29,1.21-1.93,1.85V29.74c.4-.61.81-1.23,1.23-1.85C1.37,27.68,1.52,27.47,1.66,27.25Z"
        />
        <path
          class="cls-5"
          d="M2.17,45.68l7-11.27a6.51,6.51,0,0,1,5.53-3.07h0A14.74,14.74,0,0,0,29.47,16.61h0A14.73,14.73,0,0,0,25.15,6.19C16.73,13.92,4,28.25,2.17,45.68Z"
        />
        <path
          class="cls-6"
          d="M62.1,48.27h-5v1.25h5a.18.18,0,0,0,.2-.2v-.85A.18.18,0,0,0,62.1,48.27Z"
        />
        <path
          class="cls-7"
          d="M62.2,41.82H57.13v1.27H62.2a.18.18,0,0,0,.2-.21V42A.18.18,0,0,0,62.2,41.82Z"
        />
        <path
          class="cls-8"
          d="M62.1,35.4h-5v1.25h5a.18.18,0,0,0,.2-.2V35.6A.18.18,0,0,0,62.1,35.4Z"
        />
        <g class="cls-9">
          <path
            class="cls-10"
            d="M14.72,1.87H6.59q0,.38,0,.75A12,12,0,0,0,7.71,7.71a73.13,73.13,0,0,1,11.88-5A14.83,14.83,0,0,0,14.72,1.87Z"
          />
          <path
            class="cls-11"
            d="M16.42,10.51A70,70,0,0,1,23.72,5a63.15,63.15,0,0,1,8.93-5L29.77.78a67.23,67.23,0,0,0-7.82,3h0l-.73.33-.38.18c-.52.25-1,.5-1.57.77l-.48.24L17.34,6,17,6.22c-.57.3-1.15.63-1.74,1l-.48.28c-.53.31-1.07.64-1.62,1l-.25.15c-.61.39-1.23.79-1.85,1.21l-.48.32-1,.68A21.24,21.24,0,0,0,12.72,14c1.17-1.16,2.4-2.31,3.67-3.41Z"
          />
          <path
            class="cls-12"
            d="M25.13,6.19a94.49,94.49,0,0,0-9.39,9.94,43.26,43.26,0,0,0,12.93,5.19A14.63,14.63,0,0,0,25.13,6.19Z"
          />
        </g>
      </g>
    </g>
  </g>
</svg>
